<?xml version="1.0" encoding="utf-8" standalone="no"?>
<!DOCTYPE svg PUBLIC "-//W3C//DTD SVG 1.1//EN"
  "http://www.w3.org/Graphics/SVG/1.1/DTD/svg11.dtd">
<svg xmlns:xlink="http://www.w3.org/1999/xlink" width="461.99952pt" height="274.79952pt" viewBox="0 0 461.99952 274.79952" xmlns="http://www.w3.org/2000/svg" version="1.1">
 <metadata>
  <rdf:RDF xmlns:dc="http://purl.org/dc/elements/1.1/" xmlns:cc="http://creativecommons.org/ns#" xmlns:rdf="http://www.w3.org/1999/02/22-rdf-syntax-ns#">
   <cc:Work>
    <dc:type rdf:resource="http://purl.org/dc/dcmitype/StillImage"/>
    <dc:date>2026-07-16T09:06:31.763003</dc:date>
    <dc:format>image/svg+xml</dc:format>
    <dc:creator>
     <cc:Agent>
      <dc:title>Matplotlib v3.11.0, https://matplotlib.org/</dc:title>
     </cc:Agent>
    </dc:creator>
   </cc:Work>
  </rdf:RDF>
 </metadata>
 <defs>
  <style type="text/css">*{stroke-linejoin: round; stroke-linecap: butt}</style>
 </defs>
 <g id="figure_1">
  <g id="patch_1">
   <path d="M 0 274.79952 
L 461.99952 274.79952 
L 461.99952 0 
L 0 0 
z
" style="fill: #ffffff"/>
  </g>
  <g id="axes_1">
   <g id="patch_2">
    <path d="M 49.378125 235.569833 
L 451.784676 235.569833 
L 451.784676 7.2 
L 49.378125 7.2 
z
" style="fill: #ffffff"/>
   </g>
   <g id="matplotlib.axis_1">
    <g id="xtick_1">
     <g id="line2d_1">
      <path d="M 49.378125 235.569833 
L 49.378125 7.2 
" clip-path="url(#p95eba926c9)" style="fill: none; stroke: #b0b0b0; stroke-opacity: 0.24; stroke-width: 0.8; stroke-linecap: square"/>
     </g>
     <g id="line2d_2">
      <defs>
       <path id="m8248f3d874" d="M 0 0 
L 0 3.5 
" style="stroke: #000000; stroke-width: 0.8"/>
      </defs>
      <g>
       <use xlink:href="#m8248f3d874" x="49.378125" y="235.569833" style="stroke: #000000; stroke-width: 0.8"/>
      </g>
     </g>
     <g id="text_1">
      <text style="font-size: 10px; font-family: 'Noto Sans JP'; text-anchor: middle" x="49.378125" y="251.369833" transform="rotate(-0 49.378125 251.369833)">−π</text>
     </g>
    </g>
    <g id="xtick_2">
     <g id="line2d_3">
      <path d="M 149.979763 235.569833 
L 149.979763 7.2 
" clip-path="url(#p95eba926c9)" style="fill: none; stroke: #b0b0b0; stroke-opacity: 0.24; stroke-width: 0.8; stroke-linecap: square"/>
     </g>
     <g id="line2d_4">
      <g>
       <use xlink:href="#m8248f3d874" x="149.979763" y="235.569833" style="stroke: #000000; stroke-width: 0.8"/>
      </g>
     </g>
     <g id="text_2">
      <text style="font-size: 10px; font-family: 'Noto Sans JP'; text-anchor: middle" x="149.979763" y="251.369833" transform="rotate(-0 149.979763 251.369833)">−π/2</text>
     </g>
    </g>
    <g id="xtick_3">
     <g id="line2d_5">
      <path d="M 250.581401 235.569833 
L 250.581401 7.2 
" clip-path="url(#p95eba926c9)" style="fill: none; stroke: #b0b0b0; stroke-opacity: 0.24; stroke-width: 0.8; stroke-linecap: square"/>
     </g>
     <g id="line2d_6">
      <g>
       <use xlink:href="#m8248f3d874" x="250.581401" y="235.569833" style="stroke: #000000; stroke-width: 0.8"/>
      </g>
     </g>
     <g id="text_3">
      <text style="font-size: 10px; font-family: 'Noto Sans JP'; text-anchor: middle" x="250.581401" y="251.369833" transform="rotate(-0 250.581401 251.369833)">0</text>
     </g>
    </g>
    <g id="xtick_4">
     <g id="line2d_7">
      <path d="M 351.183038 235.569833 
L 351.183038 7.2 
" clip-path="url(#p95eba926c9)" style="fill: none; stroke: #b0b0b0; stroke-opacity: 0.24; stroke-width: 0.8; stroke-linecap: square"/>
     </g>
     <g id="line2d_8">
      <g>
       <use xlink:href="#m8248f3d874" x="351.183038" y="235.569833" style="stroke: #000000; stroke-width: 0.8"/>
      </g>
     </g>
     <g id="text_4">
      <text style="font-size: 10px; font-family: 'Noto Sans JP'; text-anchor: middle" x="351.183038" y="251.369833" transform="rotate(-0 351.183038 251.369833)">π/2</text>
     </g>
    </g>
    <g id="xtick_5">
     <g id="line2d_9">
      <path d="M 451.784676 235.569833 
L 451.784676 7.2 
" clip-path="url(#p95eba926c9)" style="fill: none; stroke: #b0b0b0; stroke-opacity: 0.24; stroke-width: 0.8; stroke-linecap: square"/>
     </g>
     <g id="line2d_10">
      <g>
       <use xlink:href="#m8248f3d874" x="451.784676" y="235.569833" style="stroke: #000000; stroke-width: 0.8"/>
      </g>
     </g>
     <g id="text_5">
      <text style="font-size: 10px; font-family: 'Noto Sans JP'; text-anchor: middle" x="451.784676" y="251.369833" transform="rotate(-0 451.784676 251.369833)">π</text>
     </g>
    </g>
    <g id="text_6">
     <text style="font-size: 10px; font-family: 'Noto Sans JP'; text-anchor: middle" x="250.581401" y="265.929208" transform="rotate(-0 250.581401 265.929208)">位相差 [rad]</text>
    </g>
   </g>
   <g id="matplotlib.axis_2">
    <g id="ytick_1">
     <g id="line2d_11">
      <path d="M 49.378125 225.189386 
L 451.784676 225.189386 
" clip-path="url(#p95eba926c9)" style="fill: none; stroke: #b0b0b0; stroke-opacity: 0.24; stroke-width: 0.8; stroke-linecap: square"/>
     </g>
     <g id="line2d_12">
      <defs>
       <path id="m0f53738207" d="M 0 0 
L -3.5 0 
" style="stroke: #000000; stroke-width: 0.8"/>
      </defs>
      <g>
       <use xlink:href="#m0f53738207" x="49.378125" y="225.189386" style="stroke: #000000; stroke-width: 0.8"/>
      </g>
     </g>
     <g id="text_7">
      <text style="font-size: 10px; font-family: 'Noto Sans JP'; text-anchor: end" x="42.378125" y="229.589386" transform="rotate(-0 42.378125 229.589386)">-1.00</text>
     </g>
    </g>
    <g id="ytick_2">
     <g id="line2d_13">
      <path d="M 49.378125 199.238268 
L 451.784676 199.238268 
" clip-path="url(#p95eba926c9)" style="fill: none; stroke: #b0b0b0; stroke-opacity: 0.24; stroke-width: 0.8; stroke-linecap: square"/>
     </g>
     <g id="line2d_14">
      <g>
       <use xlink:href="#m0f53738207" x="49.378125" y="199.238268" style="stroke: #000000; stroke-width: 0.8"/>
      </g>
     </g>
     <g id="text_8">
      <text style="font-size: 10px; font-family: 'Noto Sans JP'; text-anchor: end" x="42.378125" y="203.638268" transform="rotate(-0 42.378125 203.638268)">-0.75</text>
     </g>
    </g>
    <g id="ytick_3">
     <g id="line2d_15">
      <path d="M 49.378125 173.287151 
L 451.784676 173.287151 
" clip-path="url(#p95eba926c9)" style="fill: none; stroke: #b0b0b0; stroke-opacity: 0.24; stroke-width: 0.8; stroke-linecap: square"/>
     </g>
     <g id="line2d_16">
      <g>
       <use xlink:href="#m0f53738207" x="49.378125" y="173.287151" style="stroke: #000000; stroke-width: 0.8"/>
      </g>
     </g>
     <g id="text_9">
      <text style="font-size: 10px; font-family: 'Noto Sans JP'; text-anchor: end" x="42.378125" y="177.687151" transform="rotate(-0 42.378125 177.687151)">-0.50</text>
     </g>
    </g>
    <g id="ytick_4">
     <g id="line2d_17">
      <path d="M 49.378125 147.336034 
L 451.784676 147.336034 
" clip-path="url(#p95eba926c9)" style="fill: none; stroke: #b0b0b0; stroke-opacity: 0.24; stroke-width: 0.8; stroke-linecap: square"/>
     </g>
     <g id="line2d_18">
      <g>
       <use xlink:href="#m0f53738207" x="49.378125" y="147.336034" style="stroke: #000000; stroke-width: 0.8"/>
      </g>
     </g>
     <g id="text_10">
      <text style="font-size: 10px; font-family: 'Noto Sans JP'; text-anchor: end" x="42.378125" y="151.736034" transform="rotate(-0 42.378125 151.736034)">-0.25</text>
     </g>
    </g>
    <g id="ytick_5">
     <g id="line2d_19">
      <path d="M 49.378125 121.384916 
L 451.784676 121.384916 
" clip-path="url(#p95eba926c9)" style="fill: none; stroke: #b0b0b0; stroke-opacity: 0.24; stroke-width: 0.8; stroke-linecap: square"/>
     </g>
     <g id="line2d_20">
      <g>
       <use xlink:href="#m0f53738207" x="49.378125" y="121.384916" style="stroke: #000000; stroke-width: 0.8"/>
      </g>
     </g>
     <g id="text_11">
      <text style="font-size: 10px; font-family: 'Noto Sans JP'; text-anchor: end" x="42.378125" y="125.784916" transform="rotate(-0 42.378125 125.784916)">0.00</text>
     </g>
    </g>
    <g id="ytick_6">
     <g id="line2d_21">
      <path d="M 49.378125 95.433799 
L 451.784676 95.433799 
" clip-path="url(#p95eba926c9)" style="fill: none; stroke: #b0b0b0; stroke-opacity: 0.24; stroke-width: 0.8; stroke-linecap: square"/>
     </g>
     <g id="line2d_22">
      <g>
       <use xlink:href="#m0f53738207" x="49.378125" y="95.433799" style="stroke: #000000; stroke-width: 0.8"/>
      </g>
     </g>
     <g id="text_12">
      <text style="font-size: 10px; font-family: 'Noto Sans JP'; text-anchor: end" x="42.378125" y="99.833799" transform="rotate(-0 42.378125 99.833799)">0.25</text>
     </g>
    </g>
    <g id="ytick_7">
     <g id="line2d_23">
      <path d="M 49.378125 69.482682 
L 451.784676 69.482682 
" clip-path="url(#p95eba926c9)" style="fill: none; stroke: #b0b0b0; stroke-opacity: 0.24; stroke-width: 0.8; stroke-linecap: square"/>
     </g>
     <g id="line2d_24">
      <g>
       <use xlink:href="#m0f53738207" x="49.378125" y="69.482682" style="stroke: #000000; stroke-width: 0.8"/>
      </g>
     </g>
     <g id="text_13">
      <text style="font-size: 10px; font-family: 'Noto Sans JP'; text-anchor: end" x="42.378125" y="73.882682" transform="rotate(-0 42.378125 73.882682)">0.50</text>
     </g>
    </g>
    <g id="ytick_8">
     <g id="line2d_25">
      <path d="M 49.378125 43.531564 
L 451.784676 43.531564 
" clip-path="url(#p95eba926c9)" style="fill: none; stroke: #b0b0b0; stroke-opacity: 0.24; stroke-width: 0.8; stroke-linecap: square"/>
     </g>
     <g id="line2d_26">
      <g>
       <use xlink:href="#m0f53738207" x="49.378125" y="43.531564" style="stroke: #000000; stroke-width: 0.8"/>
      </g>
     </g>
     <g id="text_14">
      <text style="font-size: 10px; font-family: 'Noto Sans JP'; text-anchor: end" x="42.378125" y="47.931564" transform="rotate(-0 42.378125 47.931564)">0.75</text>
     </g>
    </g>
    <g id="ytick_9">
     <g id="line2d_27">
      <path d="M 49.378125 17.580447 
L 451.784676 17.580447 
" clip-path="url(#p95eba926c9)" style="fill: none; stroke: #b0b0b0; stroke-opacity: 0.24; stroke-width: 0.8; stroke-linecap: square"/>
     </g>
     <g id="line2d_28">
      <g>
       <use xlink:href="#m0f53738207" x="49.378125" y="17.580447" style="stroke: #000000; stroke-width: 0.8"/>
      </g>
     </g>
     <g id="text_15">
      <text style="font-size: 10px; font-family: 'Noto Sans JP'; text-anchor: end" x="42.378125" y="21.980447" transform="rotate(-0 42.378125 21.980447)">1.00</text>
     </g>
    </g>
    <g id="text_16">
     <text style="font-size: 10px; font-family: 'Noto Sans JP'; text-anchor: middle" x="16" y="121.384916" transform="rotate(-90 16 121.384916)">結合関数値</text>
    </g>
   </g>
   <g id="line2d_29">
    <path d="M 49.937023 122.29077 
L 63.909473 144.735841 
L 71.734045 156.888136 
L 78.44082 166.889801 
L 84.0298 174.84817 
L 89.059882 181.664478 
L 94.089964 188.109143 
L 98.561148 193.49356 
L 103.032332 198.52667 
L 106.944618 202.623141 
L 110.856904 206.416559 
L 114.76919 209.892776 
L 118.681475 213.038823 
L 122.034863 215.463715 
L 125.388251 217.630744 
L 128.741639 219.53397 
L 132.095027 221.168176 
L 135.448415 222.528884 
L 138.801803 223.612362 
L 141.596293 224.301324 
L 144.390783 224.794378 
L 147.185273 225.090587 
L 149.979763 225.189386 
L 152.774253 225.090587 
L 155.568743 224.794378 
L 158.363233 224.301324 
L 161.157723 223.612362 
L 163.952213 222.728805 
L 167.3056 221.414064 
L 170.658988 219.82515 
L 174.012376 217.966418 
L 177.365764 215.842963 
L 180.719152 213.460605 
L 184.07254 210.825874 
L 187.984826 207.442722 
L 191.897112 203.738539 
L 195.809398 199.727144 
L 199.721684 195.423501 
L 204.192868 190.167839 
L 208.664052 184.577073 
L 213.694133 177.920882 
L 219.283113 170.118163 
L 225.430991 161.109167 
L 232.137767 150.866978 
L 240.521237 137.623513 
L 250.022503 122.29077 
M 251.140299 120.479063 
L 265.112748 98.033991 
L 272.93732 85.881697 
L 279.644096 75.880032 
L 285.233076 67.921662 
L 290.263158 61.105354 
L 295.29324 54.66069 
L 299.764424 49.276273 
L 304.235607 44.243162 
L 308.147893 40.146692 
L 312.060179 36.353273 
L 315.972465 32.877056 
L 319.884751 29.73101 
L 323.238139 27.306117 
L 326.591527 25.139088 
L 329.944915 23.235862 
L 333.298303 21.601656 
L 336.651691 20.240949 
L 340.005079 19.15747 
L 342.799569 18.468509 
L 345.594059 17.975454 
L 348.388548 17.679246 
L 351.183038 17.580447 
L 353.977528 17.679246 
L 356.772018 17.975454 
L 359.566508 18.468509 
L 362.360998 19.15747 
L 365.155488 20.041027 
L 368.508876 21.355768 
L 371.862264 22.944682 
L 375.215652 24.803414 
L 378.56904 26.926869 
L 381.922428 29.309227 
L 385.275816 31.943959 
L 389.188102 35.327111 
L 393.100388 39.031294 
L 397.012673 43.042689 
L 400.924959 47.346332 
L 405.396143 52.601994 
L 409.867327 58.192759 
L 414.897409 64.84895 
L 420.486389 72.65167 
L 426.634267 81.660666 
L 433.341043 91.902854 
L 441.724512 105.14632 
L 451.225778 120.479063 
L 451.225778 120.479063 
" clip-path="url(#p95eba926c9)" style="fill: none; stroke: #e69f00; stroke-width: 2; stroke-linecap: square"/>
   </g>
   <g id="line2d_30">
    <path d="M 49.937023 121.673262 
L 250.022503 224.90104 
M 251.140299 17.868793 
L 451.225778 121.096571 
L 451.225778 121.096571 
" clip-path="url(#p95eba926c9)" style="fill: none; stroke: #0072b2; stroke-width: 2; stroke-linecap: square"/>
   </g>
   <g id="line2d_31">
    <path d="M 49.378125 121.384916 
L 451.784676 121.384916 
" clip-path="url(#p95eba926c9)" style="fill: none; stroke: #8c8c8c; stroke-width: 0.7; stroke-linecap: square"/>
   </g>
   <g id="line2d_32">
    <path d="M 250.581401 235.569833 
L 250.581401 7.2 
" clip-path="url(#p95eba926c9)" style="fill: none; stroke: #8c8c8c; stroke-width: 0.7; stroke-linecap: square"/>
   </g>
   <g id="patch_3">
    <path d="M 49.378125 235.569833 
L 49.378125 7.2 
" style="fill: none; stroke: #000000; stroke-width: 0.8; stroke-linejoin: miter; stroke-linecap: square"/>
   </g>
   <g id="patch_4">
    <path d="M 49.378125 235.569833 
L 451.784676 235.569833 
" style="fill: none; stroke: #000000; stroke-width: 0.8; stroke-linejoin: miter; stroke-linecap: square"/>
   </g>
   <g id="legend_1">
    <g id="line2d_33">
     <path d="M 58.378125 21.5 
L 68.378125 21.5 
L 78.378125 21.5 
" style="fill: none; stroke: #e69f00; stroke-width: 2; stroke-linecap: square"/>
    </g>
    <g id="text_17">
     <text style="font-size: 10px; font-family: 'Noto Sans JP'; text-anchor: start" x="86.378125" y="25" transform="rotate(-0 86.378125 25)">Kuramoto型</text>
    </g>
    <g id="line2d_34">
     <path d="M 58.378125 36.5 
L 68.378125 36.5 
L 78.378125 36.5 
" style="fill: none; stroke: #0072b2; stroke-width: 2; stroke-linecap: square"/>
    </g>
    <g id="text_18">
     <text style="font-size: 10px; font-family: 'Noto Sans JP'; text-anchor: start" x="86.378125" y="40" transform="rotate(-0 86.378125 40)">カエル合唱型</text>
    </g>
   </g>
  </g>
 </g>
 <defs>
  <clipPath id="p95eba926c9">
   <rect x="49.378125" y="7.2" width="402.406551" height="228.369833"/>
  </clipPath>
 </defs>
</svg>
